<svg width="33" height="34" viewBox="0 0 33 34" fill="none" xmlns="http://www.w3.org/2000/svg">
<path d="M16.41 31.82C24.3684 31.82 30.82 25.3684 30.82 17.41C30.82 9.45158 24.3684 3 16.41 3C8.45158 3 2 9.45158 2 17.41C2 25.3684 8.45158 31.82 16.41 31.82Z" fill="#C8A063"/>
<path d="M26.0968 12.9138C26.0426 11.854 25.8802 11.1288 25.6366 10.5152C25.3929 9.84575 25.0139 9.26003 24.5266 8.75798C24.0393 8.25592 23.4708 7.86544 22.8211 7.61442C22.1985 7.36339 21.4946 7.19604 20.493 7.14026C19.4643 7.08447 19.1394 7.08447 16.5135 7.08447C13.8876 7.08447 13.5627 7.08447 12.534 7.14026C11.5053 7.19604 10.8014 7.36339 10.2059 7.61442C9.55616 7.86544 8.98767 8.25592 8.50038 8.75798C8.0131 9.26003 7.6341 9.84575 7.39045 10.5152C7.14681 11.1567 6.98438 11.8818 6.93024 12.9138C6.8761 13.9737 6.8761 14.3084 6.8761 17.0139C6.8761 19.7194 6.8761 20.0541 6.93024 21.114C6.98438 22.1739 7.14681 22.8991 7.39045 23.5127C7.6341 24.1821 8.0131 24.7678 8.50038 25.2699C8.98767 25.7719 9.55616 26.1624 10.2059 26.4134C10.8285 26.6645 11.5324 26.8318 12.534 26.8876C13.5627 26.9434 13.8876 26.9434 16.5135 26.9434C19.1394 26.9434 19.4643 26.9434 20.493 26.8876C21.5217 26.8318 22.2256 26.6645 22.8211 26.4134C24.1206 25.8835 25.1493 24.8515 25.6366 23.5127C25.8802 22.8712 26.0426 22.146 26.0968 21.114C26.1509 20.0541 26.1509 19.7194 26.1509 17.0139C26.1509 14.3084 26.1509 13.9737 26.0968 12.9138ZM24.3642 21.0303C24.3101 22.0065 24.1747 22.5365 24.0393 22.8712C23.7145 23.7358 23.0377 24.4331 22.1985 24.7678C21.8466 24.9073 21.3593 25.0746 20.4118 25.1025C19.3831 25.1583 19.0853 25.1583 16.5135 25.1583C13.9417 25.1583 13.6169 25.1583 12.6152 25.1025C11.6677 25.0467 11.1534 24.9073 10.8285 24.7678C10.4224 24.6005 10.0164 24.3494 9.71859 24.0147C9.39374 23.68 9.15009 23.3175 8.98767 22.8712C8.85231 22.5086 8.68988 22.0065 8.66281 21.0303C8.60867 19.9704 8.60867 19.6636 8.60867 17.0139C8.60867 14.3642 8.60867 14.0295 8.66281 12.9975C8.71695 12.0213 8.85231 11.4914 8.98767 11.1567C9.15009 10.7383 9.39374 10.3199 9.71859 10.0131C10.0434 9.6784 10.3954 9.42738 10.8285 9.26003C11.1804 9.12057 11.6677 8.95322 12.6152 8.92533C13.6439 8.86954 13.9417 8.86954 16.5135 8.86954C19.0853 8.86954 19.4101 8.86954 20.4118 8.92533C21.3593 8.98111 21.8736 9.12057 22.1985 9.26003C22.6046 9.42738 23.0106 9.6784 23.3084 10.0131C23.6333 10.3478 23.8769 10.7104 24.0393 11.1567C24.1747 11.5193 24.3371 12.0213 24.3642 12.9975C24.4183 14.0574 24.4183 14.3642 24.4183 17.0139C24.4183 19.6636 24.4183 19.9704 24.3642 21.0303Z" fill="#373435"/>
<path d="M16.5135 11.8818C13.7793 11.8818 11.5594 14.169 11.5594 16.986C11.5594 19.8031 13.7522 22.1181 16.5135 22.1181C19.2477 22.1181 21.4676 19.831 21.4676 17.0139C21.4676 14.1968 19.2477 11.8818 16.5135 11.8818ZM16.5135 20.3051C14.7268 20.3051 13.292 18.8269 13.292 16.986C13.292 15.1452 14.7268 13.6669 16.5135 13.6669C18.3002 13.6669 19.735 15.1452 19.735 16.986C19.7079 18.8269 18.2731 20.3051 16.5135 20.3051Z" fill="#373435"/>
<path d="M21.657 10.4873C21.0073 10.4873 20.4929 11.0172 20.4929 11.6866C20.4929 12.3561 21.0073 12.886 21.657 12.886C22.3067 12.886 22.8211 12.3561 22.8211 11.6866C22.8211 11.0451 22.3067 10.4873 21.657 10.4873Z" fill="#373435"/>
</svg>
