<svg width="34" height="34" viewBox="0 0 34 34" fill="none" xmlns="http://www.w3.org/2000/svg">
<path d="M16.41 30.4933C24.3684 30.4933 30.82 24.0418 30.82 16.0833C30.82 8.12492 24.3684 1.67334 16.41 1.67334C8.45158 1.67334 2 8.12492 2 16.0833C2 24.0418 8.45158 30.4933 16.41 30.4933Z" fill="#C8A063"/>
<path d="M26.9156 10.8499C26.1904 11.1567 25.4094 11.3798 24.6284 11.4914C25.4652 10.9893 26.0788 10.2363 26.3856 9.28795C25.6046 9.73422 24.7679 10.0689 23.8475 10.2642C23.1223 9.48319 22.0624 9.00903 20.9467 9.00903C18.7433 9.00903 16.9582 10.7941 16.9582 12.9975C16.9582 13.3044 16.9861 13.6112 17.0419 13.918C13.7228 13.7506 10.7941 12.1608 8.84173 9.76211C8.50703 10.3478 8.2839 11.0451 8.2839 11.7703C8.2839 13.137 8.98119 14.3642 10.0411 15.0894C9.39956 15.0894 8.78595 14.8942 8.22811 14.5874C8.22811 14.5874 8.22811 14.6153 8.22811 14.6432C8.22811 16.5677 9.6227 18.1854 11.4078 18.548C11.0731 18.6317 10.7384 18.6875 10.3758 18.6875C10.1247 18.6875 9.87372 18.6596 9.6227 18.6317C10.1526 20.2215 11.603 21.3651 13.3323 21.393C11.9656 22.4528 10.2642 23.0943 8.39546 23.0943C8.06076 23.0943 7.75395 23.0665 7.44714 23.0386C9.20432 24.1821 11.2962 24.8236 13.5554 24.8236C20.9188 24.7678 24.9352 18.6875 24.9352 13.4159C24.9352 13.2486 24.9353 13.0812 24.9074 12.9139C25.7162 12.356 26.3856 11.6587 26.9156 10.8499Z" fill="#373435"/>
</svg>
