<svg width="31" height="34" viewBox="0 0 31 34" fill="none" xmlns="http://www.w3.org/2000/svg">
<path d="M15.885 30.4936C23.8434 30.4936 30.295 24.042 30.295 16.0836C30.295 8.12516 23.8434 1.67358 15.885 1.67358C7.92655 1.67358 1.47498 8.12516 1.47498 16.0836C1.47498 24.042 7.92655 30.4936 15.885 30.4936Z" fill="#C8A063"/>
<path d="M18.4881 9.53895H20.2428V6.19195C19.9377 6.13617 18.895 6.05249 17.6743 6.05249C15.1313 6.05249 13.402 7.80967 13.402 11.0172V13.9458H10.6046V17.6833H13.402V27.1107H16.8351V17.7112H19.5054L19.9377 13.9458H16.8351V11.3519C16.8351 10.292 17.1149 9.53895 18.4881 9.53895Z" fill="#373435"/>
</svg>
