<svg width="34" height="32" viewBox="0 0 34 32" fill="none" xmlns="http://www.w3.org/2000/svg">
<path d="M17.41 30.8236C25.3684 30.8236 31.82 24.3712 31.82 16.4118C31.82 8.45239 25.3684 2 17.41 2C9.45158 2 3 8.45239 3 16.4118C3 24.3712 9.45158 30.8236 17.41 30.8236Z" fill="#C8A063"/>
<path d="M15.3125 17.3257C15.3683 16.8794 14.9499 16.3544 14.42 16.1444L10.2083 14.5956C9.6505 14.3856 9.03688 14.8844 8.86953 15.6456C8.86953 15.6456 8.75796 18.3757 8.86953 18.9533C8.9811 19.5308 9.67839 19.9771 10.2362 19.7933L14.2247 18.4807C14.7826 18.2707 15.2567 17.772 15.3125 17.3257Z" fill="#373435"/>
<path d="M16.4839 19.3734C16.0934 19.3471 15.4519 19.6621 15.0615 20.0821L12.2723 23.1798C11.8818 23.5998 12.077 24.5973 12.6349 24.7811L15.5635 25.7261C16.1213 25.9099 17.0975 25.3586 17.0975 24.8073L17.1812 20.4234C17.1812 19.8721 16.8744 19.3996 16.4839 19.3734Z" fill="#373435"/>
<path d="M15.0615 14.0969C15.3683 14.5695 15.9262 14.8845 16.3167 14.832C16.7071 14.7532 17.014 14.2544 17.014 13.7032L16.9582 6.6679C16.9582 6.11663 16.5119 5.67036 15.6194 5.51286C14.7547 5.35535 12.635 5.59161 11.5472 6.37914C10.1805 7.37668 10.7941 7.58669 11.1009 8.05921L15.0615 14.0969Z" fill="#373435"/>
<path d="M20.5004 16.5383L24.3773 15.8557C25.0746 15.6982 25.1025 14.8845 24.9351 14.4119C24.7678 13.9394 23.68 12.5219 23.0943 12.0493C22.5086 11.5768 21.8392 11.6293 21.4487 12.0493L19.1895 14.5432C18.799 14.9632 18.7153 15.6195 18.9663 16.0133C19.2452 16.4333 19.9146 16.6695 20.5004 16.5383Z" fill="#373435"/>
<path d="M24.0984 19.7147L20.6119 18.7696C20.0541 18.6121 19.4126 18.6384 19.1894 18.7959C18.9663 18.9534 19.0221 19.5047 19.301 19.9772L21.5045 23.7311C21.7834 24.2036 22.9269 24.1249 23.2337 23.6523C23.2337 23.6523 24.5725 21.8148 24.7957 21.1322C25.0467 20.5022 24.6562 19.8722 24.0984 19.7147Z" fill="#373435"/>
</svg>
