<svg width="32" height="32" viewBox="0 0 32 32" fill="none" xmlns="http://www.w3.org/2000/svg">
<path d="M15.9343 30.3986C23.8937 30.3986 30.3461 23.9462 30.3461 15.9868C30.3461 8.02734 23.8937 1.57495 15.9343 1.57495C7.97485 1.57495 1.52246 8.02734 1.52246 15.9868C1.52246 23.9462 7.97485 30.3986 15.9343 30.3986Z" fill="#C8A063"/>
<path d="M10.2904 13.9653C8.74162 13.9653 7.48157 15.2254 7.48157 16.7742C7.48157 18.323 8.74162 19.5831 10.2904 19.5831C11.8392 19.5831 13.0993 18.3493 13.0993 16.8004C13.0993 15.2516 11.8392 13.9653 10.2904 13.9653ZM10.2904 18.218C9.5029 18.218 8.87287 17.588 8.87287 16.8004C8.87287 16.0129 9.5029 15.3829 10.2904 15.3829C11.078 15.3829 11.708 16.0129 11.708 16.8004C11.708 17.588 11.0517 18.218 10.2904 18.218Z" fill="#373435"/>
<path d="M10.3167 16.0918C9.92292 16.0918 9.60791 16.4068 9.60791 16.8006C9.60791 17.1943 9.92292 17.5094 10.3167 17.5094C10.7105 17.5094 11.0255 17.1943 11.0255 16.8006C11.0255 16.4068 10.7105 16.0918 10.3167 16.0918Z" fill="#373435"/>
<path d="M26.0148 13.3617C26.3823 12.7842 26.8811 12.4692 26.8811 12.4692C27.1436 12.3117 27.2749 11.9704 27.1699 11.6816C27.0911 11.3929 26.8024 11.1829 26.4873 11.1829H23.2322C19.0058 7.50773 12.8106 7.50773 8.58414 11.1829H5.35526C5.04025 11.1829 4.77774 11.3929 4.67274 11.6816C4.59398 11.9967 4.69899 12.3117 4.9615 12.4692C4.9615 12.4692 5.46027 12.7842 5.82778 13.3617C5.0665 14.333 4.64648 15.5405 4.64648 16.8006C4.64648 19.8982 7.16658 22.4446 10.2905 22.4446C11.8655 22.4446 13.2831 21.7883 14.3331 20.7382L15.4357 22.1558C15.5669 22.3133 15.7769 22.4183 15.9869 22.4183C16.1969 22.4183 16.4069 22.3133 16.5382 22.1296L17.5357 20.7382C18.5595 21.762 19.9771 22.4183 21.5521 22.4183C24.6498 22.4183 27.1961 19.8982 27.1961 16.7743C27.1961 15.5405 26.7761 14.333 26.0148 13.3617ZM10.2905 21.027C7.95411 21.027 6.06404 19.1369 6.06404 16.8006C6.06404 15.7243 6.48406 14.7005 7.21908 13.9392C7.42909 13.7292 7.4816 13.4142 7.35034 13.1517C7.24534 12.9417 7.14033 12.7317 7.03533 12.5742H10.3167C12.653 12.5742 14.5431 14.4643 14.5431 16.8006C14.5431 19.1369 12.6268 21.027 10.2905 21.027ZM15.9607 20.5545L15.1994 19.5569C15.6719 18.7432 15.9344 17.7981 15.9344 16.7743C15.9344 13.8867 13.7556 11.4979 10.9467 11.1829C14.0181 9.3453 17.8507 9.3453 20.9221 11.1829C18.1133 11.5241 15.9344 13.913 15.9344 16.8006C15.9344 17.8244 16.1969 18.7694 16.6695 19.5832L15.9607 20.5545ZM21.5784 21.027C19.2421 21.027 17.3257 19.1369 17.3257 16.8006C17.3257 14.4643 19.2158 12.5742 21.5521 12.5742H24.8335C24.7285 12.7579 24.5973 12.9417 24.5185 13.1517C24.4135 13.4142 24.4398 13.7292 24.6498 13.9392C25.3848 14.7268 25.8048 15.7243 25.8048 16.8006C25.8048 19.1369 23.8885 21.027 21.5784 21.027Z" fill="#373435"/>
<path d="M21.5784 13.9653C20.0296 13.9653 18.7695 15.2254 18.7695 16.7742C18.7695 18.323 20.0296 19.5831 21.5784 19.5831C23.1272 19.5831 24.3873 18.323 24.3873 16.7742C24.3873 15.2516 23.1272 13.9653 21.5784 13.9653ZM21.5784 18.218C20.7909 18.218 20.1608 17.588 20.1608 16.8004C20.1608 16.0129 20.7909 15.3829 21.5784 15.3829C22.3659 15.3829 22.9959 16.0129 22.9959 16.8004C22.9697 17.588 22.3397 18.218 21.5784 18.218Z" fill="#373435"/>
<path d="M21.6047 16.0918C21.2109 16.0918 20.8959 16.4068 20.8959 16.8006C20.8959 17.1943 21.2109 17.5094 21.6047 17.5094C21.9984 17.5094 22.3134 17.1943 22.3134 16.8006C22.3134 16.4068 21.9722 16.0918 21.6047 16.0918Z" fill="#373435"/>
</svg>
