<svg width="15" height="15" viewBox="0 0 15 15" fill="none" xmlns="http://www.w3.org/2000/svg">
<g clip-path="url(#clip0)">
<path d="M14.6146 11.6575L12.1293 9.17214C11.6142 8.65704 10.7805 8.65695 10.2653 9.17214L9.64398 9.7935C9.13 10.3074 8.29387 10.3074 7.77795 9.79145L5.17574 7.22369C4.66181 6.70977 4.66181 5.87363 5.17574 5.35971L5.79707 4.73838C6.31099 4.22448 6.31099 3.38832 5.79707 2.8744L3.31179 0.389084C2.79786 -0.124841 1.96164 -0.124783 1.4478 0.389084L0.826531 1.01041C0.020047 1.81687 -0.21714 3.59495 0.207518 5.65071C0.478162 6.9609 1.25679 9.48345 3.43076 11.6574C5.60034 13.827 8.10244 14.5716 9.40079 14.8223C10.8279 15.0979 12.9727 15.1633 13.9933 14.1428L14.6147 13.5214C15.1285 13.0075 15.1285 12.1713 14.6146 11.6575ZM2.06919 1.01041C2.24052 0.839114 2.51919 0.839084 2.69054 1.01041L5.17586 3.49572C5.34719 3.66705 5.34719 3.94575 5.17586 4.11708L4.86675 4.42619L1.76005 1.31955L2.06919 1.01041ZM9.56743 13.9596C8.36778 13.728 6.05605 13.0401 4.05209 11.0361C2.03998 9.02396 1.31884 6.68694 1.06805 5.47297C0.735858 3.86492 0.874168 2.65616 1.19673 1.99886L4.27633 5.07849C3.71116 5.93117 3.80403 7.09461 4.55652 7.84707L7.15873 10.4148C7.90905 11.1651 9.07181 11.2586 9.92523 10.693L13.0073 13.7751C12.0681 14.2514 10.6075 14.1604 9.56743 13.9596ZM13.9933 12.9001L13.6842 13.2092L10.5775 10.1026L10.8866 9.7935C11.0583 9.62179 11.3362 9.62179 11.508 9.7935L13.9933 12.2788C14.1646 12.4501 14.1646 12.7288 13.9933 12.9001Z" fill="#C8A063"/>
<path d="M8.40918 0.00341797C8.16655 0.00341797 7.96985 0.200117 7.96985 0.442754C7.96985 0.685391 8.16655 0.88209 8.40918 0.88209C11.5585 0.88209 14.1206 3.44425 14.1206 6.59354C14.1206 6.83618 14.3173 7.03288 14.56 7.03288C14.8026 7.03288 14.9993 6.83618 14.9993 6.59354C14.9993 2.95974 12.043 0.00341797 8.40918 0.00341797Z" fill="#C8A063"/>
<path d="M8.40918 1.76074C8.16655 1.76074 7.96985 1.95744 7.96985 2.20008C7.96985 2.44271 8.16655 2.63941 8.40918 2.63941C10.5895 2.63941 12.3633 4.41322 12.3633 6.5935C12.3633 6.83613 12.56 7.03283 12.8026 7.03283C13.0452 7.03283 13.2419 6.83613 13.2419 6.5935C13.2419 3.92871 11.074 1.76074 8.40918 1.76074Z" fill="#C8A063"/>
<path d="M8.40918 3.51807C8.16655 3.51807 7.96985 3.71477 7.96985 3.9574C7.96985 4.20004 8.16655 4.39674 8.40918 4.39674C9.62047 4.39674 10.6059 5.38217 10.6059 6.59345C10.6059 6.83609 10.8026 7.03278 11.0452 7.03278C11.2879 7.03278 11.4846 6.83609 11.4846 6.59345C11.4846 4.89769 10.1049 3.51807 8.40918 3.51807Z" fill="#C8A063"/>
<path d="M8.40918 5.27539C8.16655 5.27539 7.96985 5.47209 7.96985 5.71473C7.96985 5.95736 8.16655 6.15406 8.40918 6.15406C8.65144 6.15406 8.84852 6.35114 8.84852 6.5934C8.84852 6.83603 9.04522 7.03273 9.28786 7.03273C9.53049 7.03273 9.72719 6.83603 9.72719 6.5934C9.72722 5.86663 9.13595 5.27539 8.40918 5.27539Z" fill="#C8A063"/>
</g>
<defs>
<clipPath id="clip0">
<rect width="15" height="15" fill="white"/>
</clipPath>
</defs>
</svg>
